<svg width="33" height="32" viewBox="0 0 33 32" fill="none" xmlns="http://www.w3.org/2000/svg">
<path d="M32.061 16.0385C32.0259 7.18185 24.8343 0.0298861 15.9981 0.0641021C7.16187 0.0983182 0.0271475 7.30576 0.0622369 16.1624C0.093949 24.1666 5.97098 30.7782 13.6245 31.9516L13.5801 20.7456L9.51775 20.7613L9.49938 16.1258L13.5617 16.1101L13.5477 12.5771C13.5318 8.558 15.9116 6.32873 19.5662 6.31457C21.3167 6.3078 23.1489 6.61392 23.1489 6.61392L23.1645 10.5604L21.147 10.5682C19.1595 10.5759 18.5446 11.8144 18.5496 13.0826L18.5615 16.0908L22.9989 16.0736L22.3079 20.7118L18.5799 20.7263L18.6243 31.9323C26.2683 30.6996 32.0927 24.0427 32.061 16.0385Z" fill="#1877F2"/>
<path d="M21.9907 17.4658L22.6817 12.8276L18.2445 12.8448L18.2326 9.8367C18.2275 8.56853 18.8424 7.33001 20.8299 7.32231L22.8473 7.3145L22.8317 3.36811C22.8317 3.36811 20.9996 3.062 19.2491 3.06877C15.5946 3.08293 13.2149 5.31217 13.2308 9.33122L13.2448 12.8642L9.18256 12.8799L9.20093 17.5153L13.2632 17.4996L13.3076 28.7055C14.1226 28.8304 14.9577 28.8939 15.8082 28.8906C16.6586 28.8873 17.4932 28.8174 18.3072 28.6861L18.2628 17.4803L21.9907 17.4658Z" fill="white"/>
</svg>
