<svg width="216" height="54" viewBox="0 0 216 54" fill="none" xmlns="http://www.w3.org/2000/svg">
<path fill-rule="evenodd" clip-rule="evenodd" d="M36.7975 18.6126C36.9244 8.67036 28.84 0.359534 18.7611 0.230935C8.83952 0.104343 0.54568 8.2062 0.418824 18.1485C0.279889 29.0375 11.284 43.0678 18.1107 51.2047C25.1486 42.7712 36.6526 29.9752 36.7975 18.6126Z" fill="#114455"/>
<rect width="4.2533" height="18.5631" rx="2.12665" transform="matrix(-1 0 0 1 20.6406 14.5498)" fill="#E9F4FB"/>
<rect width="4.2533" height="13.4207" rx="2.12665" transform="matrix(-1 0 0 1 26.8906 19.6924)" fill="#E9F4FB"/>
<rect width="4.2533" height="12.7599" rx="2.12665" transform="matrix(-1 0 0 1 14.3945 20.3535)" fill="#E9F4FB"/>
<circle cx="2.70337" cy="2.70337" r="2.70337" transform="matrix(-1 0 0 1 27.4648 13.9131)" fill="#E9F4FB"/>
<circle cx="2.70337" cy="2.70337" r="2.70337" transform="matrix(-1 0 0 1 21.2148 8.84277)" fill="#E9F4FB"/>
<circle cx="2.70337" cy="2.70337" r="2.70337" transform="matrix(-1 0 0 1 14.9688 14.5498)" fill="#E9F4FB"/>
<path d="M75.002 26.8369C75.4577 26.8369 75.8809 26.9264 76.2715 27.1055C76.6784 27.2682 77.0283 27.4961 77.3213 27.7891C77.6305 28.0658 77.8665 28.3994 78.0293 28.79C78.2083 29.1644 78.2979 29.5794 78.2979 30.0352V37.335C78.2979 37.8395 78.1921 38.2871 77.9805 38.6777C77.7852 39.0521 77.5329 39.402 77.2236 39.7275C75.3031 41.3877 73.3581 42.5677 71.3887 43.2676C69.4193 43.9512 67.3766 44.293 65.2607 44.293C63.8447 44.2767 62.4613 44.0732 61.1104 43.6826C59.7757 43.292 58.5143 42.7467 57.3262 42.0469C56.1543 41.347 55.0801 40.5088 54.1035 39.5322C53.127 38.5557 52.2806 37.4733 51.5645 36.2852C50.8646 35.0807 50.3193 33.7949 49.9287 32.4277C49.5381 31.0443 49.3428 29.6038 49.3428 28.1064C49.3428 26.6253 49.5299 25.193 49.9043 23.8096C50.2786 22.4261 50.8076 21.1322 51.4912 19.9277C52.1911 18.707 53.0212 17.6003 53.9814 16.6074C54.958 15.6146 56.0404 14.7601 57.2285 14.0439C58.4329 13.3278 59.7188 12.7744 61.0859 12.3838C62.4694 11.9769 63.9098 11.7734 65.4072 11.7734C67.7184 11.7734 69.8262 12.1803 71.7305 12.9941C73.651 13.7917 75.4251 14.9961 77.0527 16.6074C77.3783 16.9329 77.6143 17.291 77.7607 17.6816C77.9235 18.056 78.0049 18.4466 78.0049 18.8535C78.0049 19.2767 77.9154 19.6836 77.7363 20.0742C77.5573 20.4648 77.3132 20.8066 77.0039 21.0996C76.7109 21.3926 76.361 21.6286 75.9541 21.8076C75.5472 21.9867 75.124 22.0762 74.6846 22.0762C74.2777 22.0762 73.887 22.0029 73.5127 21.8564C73.1383 21.71 72.7965 21.4821 72.4873 21.1729C71.4945 20.1963 70.3958 19.4801 69.1914 19.0244C68.0033 18.5687 66.7663 18.3408 65.4805 18.3408C64.1784 18.3408 62.9414 18.5931 61.7695 19.0977C60.6139 19.5859 59.5967 20.2695 58.7178 21.1484C57.8389 22.0111 57.139 23.0365 56.6182 24.2246C56.1136 25.4128 55.8613 26.6904 55.8613 28.0576C55.8613 29.376 56.1055 30.6292 56.5938 31.8174C57.0983 32.9893 57.7819 34.0228 58.6445 34.918C59.5234 35.7969 60.557 36.4967 61.7451 37.0176C62.9333 37.5384 64.2272 37.7988 65.627 37.7988C66.7337 37.7988 67.7917 37.6605 68.8008 37.3838C69.8099 37.1071 70.7946 36.6025 71.7549 35.8701V33.2822H69.1182C68.6624 33.2822 68.2393 33.2008 67.8486 33.0381C67.458 32.859 67.1162 32.623 66.8232 32.3301C66.5465 32.0371 66.3268 31.6953 66.1641 31.3047C66.0013 30.8978 65.9199 30.4746 65.9199 30.0352C65.9199 29.5957 66.0013 29.1807 66.1641 28.79C66.3268 28.3994 66.5465 28.0495 66.8232 27.7402C67.1162 27.431 67.458 27.195 67.8486 27.0322C68.2393 26.8532 68.6624 26.7637 69.1182 26.7637L75.002 26.8369ZM82.0576 32.5986C82.1064 30.9385 82.4645 29.376 83.1318 27.9111C83.7992 26.4463 84.6862 25.1686 85.793 24.0781C86.916 22.9714 88.21 22.1006 89.6748 21.4658C91.1559 20.8148 92.7266 20.473 94.3867 20.4404H94.6064C95.6807 20.4567 96.5026 20.766 97.0723 21.3682C97.6582 21.9704 97.9512 22.7354 97.9512 23.6631C97.9512 24.1351 97.8617 24.5664 97.6826 24.957C97.5036 25.3477 97.2594 25.6895 96.9502 25.9824C96.6572 26.2754 96.2992 26.5033 95.876 26.666C95.4691 26.8288 95.0378 26.9102 94.582 26.9102C93.7682 26.9102 92.9951 27.0648 92.2627 27.374C91.5465 27.6833 90.9118 28.1064 90.3584 28.6436C89.8213 29.1807 89.39 29.8154 89.0645 30.5479C88.7389 31.264 88.568 32.0371 88.5518 32.8672V40.8018C88.5518 41.2575 88.4704 41.6807 88.3076 42.0713C88.1449 42.4619 87.917 42.8037 87.624 43.0967C87.3311 43.3734 86.9893 43.5931 86.5986 43.7559C86.2243 43.9186 85.8174 44 85.3779 44C84.9385 44 84.5153 43.9186 84.1084 43.7559C83.7015 43.5931 83.3434 43.3734 83.0342 43.0967C82.7412 42.8037 82.5052 42.4619 82.3262 42.0713C82.1471 41.6807 82.0576 41.2575 82.0576 40.8018V32.5986ZM105.3 32.3789C105.3 33.1276 105.438 33.8275 105.715 34.4785C106.008 35.1296 106.398 35.6992 106.887 36.1875C107.391 36.6758 107.969 37.0583 108.62 37.335C109.271 37.6117 109.963 37.75 110.695 37.75C111.444 37.75 112.144 37.6117 112.795 37.335C113.462 37.0583 114.04 36.6758 114.528 36.1875C115.017 35.6992 115.399 35.1296 115.676 34.4785C115.969 33.8275 116.115 33.1276 116.115 32.3789C116.115 31.6302 115.969 30.9303 115.676 30.2793C115.399 29.6283 115.017 29.0586 114.528 28.5703C114.04 28.082 113.462 27.6995 112.795 27.4229C112.144 27.1462 111.444 27.0078 110.695 27.0078C109.963 27.0078 109.271 27.1462 108.62 27.4229C107.969 27.6995 107.391 28.082 106.887 28.5703C106.398 29.0586 106.008 29.6283 105.715 30.2793C105.438 30.9303 105.3 31.6302 105.3 32.3789ZM98.7812 32.3789C98.7812 30.735 99.0905 29.1888 99.709 27.7402C100.344 26.2917 101.198 25.0303 102.272 23.9561C103.363 22.8656 104.624 22.0111 106.057 21.3926C107.505 20.7578 109.051 20.4404 110.695 20.4404C112.339 20.4404 113.885 20.7578 115.334 21.3926C116.783 22.0111 118.044 22.8656 119.118 23.9561C120.192 25.0303 121.039 26.2917 121.657 27.7402C122.292 29.1888 122.609 30.735 122.609 32.3789C122.609 34.0228 122.292 35.569 121.657 37.0176C121.039 38.4499 120.192 39.7031 119.118 40.7773C118.044 41.8516 116.783 42.7061 115.334 43.3408C113.885 43.9593 112.339 44.2686 110.695 44.2686C109.051 44.2686 107.505 43.9593 106.057 43.3408C104.624 42.7061 103.363 41.8516 102.272 40.7773C101.198 39.7031 100.344 38.4499 99.709 37.0176C99.0905 35.569 98.7812 34.0228 98.7812 32.3789ZM125.856 23.6631C125.856 23.2236 125.938 22.8086 126.101 22.418C126.28 22.0273 126.516 21.6855 126.809 21.3926C127.102 21.0996 127.443 20.8717 127.834 20.709C128.225 20.5299 128.64 20.4404 129.079 20.4404C129.519 20.4404 129.934 20.5299 130.324 20.709C130.731 20.8717 131.081 21.0996 131.374 21.3926C131.683 21.6855 131.919 22.0273 132.082 22.418C132.261 22.8086 132.351 23.2236 132.351 23.6631V32.7695C132.351 33.4857 132.481 34.153 132.741 34.7715C133.002 35.3737 133.36 35.9027 133.815 36.3584C134.287 36.7979 134.833 37.1478 135.451 37.4082C136.086 37.6523 136.761 37.7744 137.478 37.7744C138.194 37.7744 138.837 37.6442 139.406 37.3838C139.976 37.1234 140.456 36.7653 140.847 36.3096C141.237 35.8538 141.538 35.3167 141.75 34.6982C141.962 34.0798 142.067 33.4124 142.067 32.6963V23.6631C142.067 23.2236 142.157 22.8086 142.336 22.418C142.515 22.0273 142.751 21.6855 143.044 21.3926C143.353 21.0996 143.711 20.8717 144.118 20.709C144.525 20.5299 144.948 20.4404 145.388 20.4404C145.827 20.4404 146.242 20.5299 146.633 20.709C147.023 20.8717 147.357 21.0996 147.634 21.3926C147.927 21.6855 148.155 22.0273 148.317 22.418C148.48 22.8086 148.562 23.2236 148.562 23.6631V32.6963C148.562 34.2913 148.285 35.7887 147.731 37.1885C147.178 38.5882 146.405 39.8171 145.412 40.875C144.419 41.9167 143.247 42.7467 141.896 43.3652C140.546 43.9674 139.073 44.2686 137.478 44.2686C135.882 44.2686 134.377 43.9674 132.961 43.3652C131.545 42.7467 130.308 41.9167 129.25 40.875C128.208 39.8171 127.378 38.5882 126.76 37.1885C126.158 35.7887 125.856 34.2913 125.856 32.6963V23.6631ZM152.907 32.1836C152.924 30.5723 153.249 29.0505 153.884 27.6182C154.535 26.1859 155.397 24.9408 156.472 23.8828C157.562 22.8249 158.824 21.9867 160.256 21.3682C161.704 20.7497 163.234 20.4404 164.846 20.4404C166.473 20.4404 168.011 20.7578 169.46 21.3926C170.909 22.0111 172.17 22.8656 173.244 23.9561C174.318 25.0303 175.165 26.2917 175.783 27.7402C176.418 29.1888 176.735 30.735 176.735 32.3789C176.735 34.0228 176.418 35.569 175.783 37.0176C175.165 38.4499 174.318 39.7031 173.244 40.7773C172.17 41.8516 170.909 42.7061 169.46 43.3408C168.011 43.9593 166.473 44.2686 164.846 44.2686C163.869 44.2686 162.925 44.1546 162.014 43.9268C161.102 43.6989 160.231 43.3734 159.401 42.9502V49.0537C159.401 49.5257 159.32 49.9652 159.157 50.3721C159.011 50.7952 158.799 51.1615 158.522 51.4707C158.246 51.7799 157.912 52.016 157.521 52.1787C157.131 52.3577 156.7 52.4473 156.228 52.4473C155.772 52.4473 155.34 52.3577 154.934 52.1787C154.543 52.016 154.193 51.7799 153.884 51.4707C153.591 51.1615 153.355 50.7952 153.176 50.3721C152.997 49.9652 152.907 49.5257 152.907 49.0537V32.1836ZM159.426 32.3789C159.426 33.1276 159.564 33.8275 159.841 34.4785C160.134 35.1296 160.524 35.6992 161.013 36.1875C161.517 36.6758 162.095 37.0583 162.746 37.335C163.413 37.6117 164.113 37.75 164.846 37.75C165.594 37.75 166.294 37.6117 166.945 37.335C167.596 37.0583 168.166 36.6758 168.654 36.1875C169.143 35.6992 169.525 35.1296 169.802 34.4785C170.095 33.8275 170.241 33.1276 170.241 32.3789C170.241 31.6302 170.095 30.9303 169.802 30.2793C169.525 29.6283 169.143 29.0586 168.654 28.5703C168.166 28.082 167.596 27.6995 166.945 27.4229C166.294 27.1462 165.594 27.0078 164.846 27.0078C164.113 27.0078 163.413 27.1462 162.746 27.4229C162.095 27.6995 161.517 28.082 161.013 28.5703C160.524 29.0586 160.134 29.6283 159.841 30.2793C159.564 30.9303 159.426 31.6302 159.426 32.3789ZM180.129 14.9961C180.129 14.5078 180.218 14.0602 180.397 13.6533C180.593 13.2301 180.845 12.8639 181.154 12.5547C181.48 12.2292 181.854 11.9769 182.277 11.7979C182.701 11.6188 183.148 11.5293 183.62 11.5293C184.092 11.5293 184.54 11.6188 184.963 11.7979C185.386 11.9769 185.752 12.2292 186.062 12.5547C186.387 12.8639 186.639 13.2301 186.818 13.6533C187.014 14.0602 187.111 14.5078 187.111 14.9961C187.111 15.4681 187.014 15.9157 186.818 16.3389C186.639 16.762 186.387 17.1364 186.062 17.4619C185.752 17.7712 185.386 18.0153 184.963 18.1943C184.54 18.3734 184.092 18.4629 183.62 18.4629C183.148 18.4629 182.701 18.3734 182.277 18.1943C181.854 18.0153 181.48 17.7712 181.154 17.4619C180.845 17.1364 180.593 16.762 180.397 16.3389C180.218 15.9157 180.129 15.4681 180.129 14.9961ZM180.324 23.6631C180.324 23.2236 180.414 22.8086 180.593 22.418C180.772 22.0273 181.008 21.6855 181.301 21.3926C181.61 21.0996 181.968 20.8717 182.375 20.709C182.782 20.5299 183.213 20.4404 183.669 20.4404C184.108 20.4404 184.523 20.5299 184.914 20.709C185.305 20.8717 185.638 21.0996 185.915 21.3926C186.208 21.6855 186.436 22.0273 186.599 22.418C186.761 22.8086 186.843 23.2236 186.843 23.6631V41.0459C186.843 41.4854 186.753 41.9004 186.574 42.291C186.411 42.6816 186.184 43.0234 185.891 43.3164C185.598 43.6094 185.256 43.8372 184.865 44C184.475 44.179 184.06 44.2686 183.62 44.2686C183.181 44.2686 182.757 44.179 182.351 44C181.96 43.8372 181.61 43.6094 181.301 43.3164C181.008 43.0234 180.772 42.6816 180.593 42.291C180.414 41.9004 180.324 41.4854 180.324 41.0459V23.6631ZM196.999 32.3789C196.999 33.1276 197.137 33.8275 197.414 34.4785C197.707 35.1296 198.098 35.6992 198.586 36.1875C199.09 36.6758 199.668 37.0583 200.319 37.335C200.97 37.6117 201.662 37.75 202.395 37.75C203.143 37.75 203.843 37.6117 204.494 37.335C205.161 37.0583 205.739 36.6758 206.228 36.1875C206.716 35.6992 207.098 35.1296 207.375 34.4785C207.668 33.8275 207.814 33.1276 207.814 32.3789C207.814 31.6302 207.668 30.9303 207.375 30.2793C207.098 29.6283 206.716 29.0586 206.228 28.5703C205.739 28.082 205.161 27.6995 204.494 27.4229C203.843 27.1462 203.143 27.0078 202.395 27.0078C201.662 27.0078 200.97 27.1462 200.319 27.4229C199.668 27.6995 199.09 28.082 198.586 28.5703C198.098 29.0586 197.707 29.6283 197.414 30.2793C197.137 30.9303 196.999 31.6302 196.999 32.3789ZM190.48 32.3789C190.48 30.735 190.79 29.1888 191.408 27.7402C192.043 26.2917 192.897 25.0303 193.972 23.9561C195.062 22.8656 196.324 22.0111 197.756 21.3926C199.204 20.7578 200.751 20.4404 202.395 20.4404C204.038 20.4404 205.585 20.7578 207.033 21.3926C208.482 22.0111 209.743 22.8656 210.817 23.9561C211.892 25.0303 212.738 26.2917 213.356 27.7402C213.991 29.1888 214.309 30.735 214.309 32.3789C214.309 34.0228 213.991 35.569 213.356 37.0176C212.738 38.4499 211.892 39.7031 210.817 40.7773C209.743 41.8516 208.482 42.7061 207.033 43.3408C205.585 43.9593 204.038 44.2686 202.395 44.2686C200.751 44.2686 199.204 43.9593 197.756 43.3408C196.324 42.7061 195.062 41.8516 193.972 40.7773C192.897 39.7031 192.043 38.4499 191.408 37.0176C190.79 35.569 190.48 34.0228 190.48 32.3789Z" fill="#114455"/>
</svg>
