<svg width="25" height="24" viewBox="0 0 25 24" fill="none" xmlns="http://www.w3.org/2000/svg">
<path d="M7.50006 13.0002L15.0861 13.0002L12.7931 15.2932C12.7002 15.386 12.6266 15.4962 12.5763 15.6175C12.5261 15.7388 12.5002 15.8688 12.5002 16.0002C12.5002 16.1315 12.5261 16.2615 12.5763 16.3828C12.6266 16.5041 12.7002 16.6143 12.7931 16.7072C12.8859 16.8 12.9961 16.8736 13.1174 16.9239C13.2387 16.9741 13.3688 17 13.5001 17C13.6314 17 13.7614 16.9741 13.8827 16.9239C14.004 16.8736 14.1142 16.8 14.2071 16.7072L18.9141 12.0002L14.2071 7.29315C14.1144 7.19996 14.0042 7.12602 13.8829 7.07555C13.7616 7.02509 13.6315 6.99911 13.5001 6.99911C13.3687 6.99911 13.2385 7.02509 13.1172 7.07555C12.9959 7.12602 12.8857 7.19996 12.7931 7.29315C12.7001 7.38594 12.6264 7.49614 12.5761 7.61746C12.5258 7.73877 12.4999 7.86882 12.4999 8.00015C12.4999 8.13148 12.5258 8.26153 12.5761 8.38284C12.6264 8.50416 12.7001 8.61436 12.7931 8.70715L15.0861 11.0002L7.50006 11.0002C7.23485 11.0002 6.98049 11.1055 6.79296 11.293C6.60542 11.4806 6.50006 11.7349 6.50006 12.0002C6.50006 12.2654 6.60542 12.5197 6.79296 12.7073C6.98049 12.8948 7.23485 13.0002 7.50006 13.0002Z" fill="white"/>
</svg>
